<svg width="312" height="48" viewBox="0 0 312 48" fill="none" xmlns="http://www.w3.org/2000/svg">
<path d="M22.6562 5.99466C22.4157 5.87441 22.2955 5.81429 22.1693 5.79062C22.0576 5.76966 21.943 5.76966 21.8313 5.79062C21.7051 5.81429 21.5849 5.87441 21.3444 5.99466L3.66696 14.8334L21.3444 23.6721C21.5849 23.7923 21.7051 23.8525 21.8313 23.8761C21.943 23.8971 22.0576 23.8971 22.1693 23.8761C22.2955 23.8525 22.4157 23.7923 22.6562 23.6721L40.3336 14.8334L22.6562 5.99466Z" fill="#58B32B"/>
<path d="M12.8336 19.4167L3.66696 24L21.3444 32.8387C21.5849 32.959 21.7051 33.0191 21.8313 33.0428C21.943 33.0637 22.0576 33.0637 22.1693 33.0428C22.2955 33.0191 22.4157 32.959 22.6562 32.8387L40.3336 24L31.167 19.4167M12.8336 28.5834L3.66696 33.1667L21.3444 42.0054C21.5849 42.1257 21.7051 42.1858 21.8313 42.2095C21.943 42.2304 22.0576 42.2304 22.1693 42.2095C22.2955 42.1858 22.4157 42.1257 22.6562 42.0054L40.3336 33.1667L31.167 28.5834M3.66696 14.8334L21.3444 5.99466C21.5849 5.87441 21.7051 5.81429 21.8313 5.79062C21.943 5.76966 22.0576 5.76966 22.1693 5.79062C22.2955 5.81429 22.4157 5.87441 22.6562 5.99466L40.3336 14.8334L22.6562 23.6721C22.4157 23.7923 22.2955 23.8525 22.1693 23.8761C22.0576 23.8971 21.943 23.8971 21.8313 23.8761C21.7051 23.8525 21.5849 23.7923 21.3444 23.6721L3.66696 14.8334Z" stroke="#58B32B" stroke-width="4" stroke-linecap="round" stroke-linejoin="round"/>
<path d="M70.504 38L68.488 31.592H59.56L57.58 38H52.756L61.18 12.872H67.084L75.436 38H70.504ZM64.096 17.192H63.916L60.712 27.524H67.336L64.096 17.192ZM79.1395 12.872H88.2835C89.9155 12.872 91.3915 13.136 92.7115 13.664C94.0555 14.192 95.1955 14.984 96.1315 16.04C97.0915 17.072 97.8235 18.38 98.3275 19.964C98.8555 21.524 99.1195 23.348 99.1195 25.436C99.1195 27.524 98.8555 29.36 98.3275 30.944C97.8235 32.504 97.0915 33.812 96.1315 34.868C95.1955 35.9 94.0555 36.68 92.7115 37.208C91.3915 37.736 89.9155 38 88.2835 38H79.1395V12.872ZM88.2835 33.788C90.0595 33.788 91.4635 33.272 92.4955 32.24C93.5515 31.184 94.0795 29.576 94.0795 27.416V23.456C94.0795 21.296 93.5515 19.7 92.4955 18.668C91.4635 17.612 90.0595 17.084 88.2835 17.084H83.8915V33.788H88.2835ZM108.712 38H103.96V12.872H115.3C116.452 12.872 117.484 13.052 118.396 13.412C119.308 13.772 120.076 14.3 120.7 14.996C121.348 15.668 121.84 16.484 122.176 17.444C122.536 18.404 122.716 19.472 122.716 20.648C122.716 22.376 122.32 23.864 121.528 25.112C120.76 26.36 119.596 27.248 118.036 27.776L123.184 38H117.892L113.212 28.316H108.712V38ZM114.832 24.32C115.744 24.32 116.464 24.08 116.992 23.6C117.52 23.096 117.784 22.388 117.784 21.476V19.82C117.784 18.908 117.52 18.212 116.992 17.732C116.464 17.252 115.744 17.012 114.832 17.012H108.712V24.32H114.832ZM126.822 38V34.184H130.134V16.688H126.822V12.872H138.234V16.688H134.886V34.184H138.234V38H126.822ZM148.921 38L140.713 12.872H145.573L149.425 25.112L151.657 33.464H151.765L153.961 25.112L157.813 12.872H162.529L154.321 38H148.921ZM166.046 38V12.872H182.606V17.084H170.798V23.168H181.238V27.38H170.798V33.788H182.606V38H166.046ZM192.384 38H187.632V12.872H198.972C200.124 12.872 201.156 13.052 202.068 13.412C202.98 13.772 203.748 14.3 204.372 14.996C205.02 15.668 205.512 16.484 205.848 17.444C206.208 18.404 206.388 19.472 206.388 20.648C206.388 22.376 205.992 23.864 205.2 25.112C204.432 26.36 203.268 27.248 201.708 27.776L206.856 38H201.564L196.884 28.316H192.384V38ZM198.504 24.32C199.416 24.32 200.136 24.08 200.664 23.6C201.192 23.096 201.456 22.388 201.456 21.476V19.82C201.456 18.908 201.192 18.212 200.664 17.732C200.136 17.252 199.416 17.012 198.504 17.012H192.384V24.32H198.504Z" fill="#171E15"/>
</svg>
